<?xml version="1.0" encoding="utf-8"?>
<svg xmlns="http://www.w3.org/2000/svg" fill="none" height="250" width="250">
  <clipPath id="a">
    <path d="M0 0h250v250H0z"/>
  </clipPath>
  <g clip-path="url(#a)">
    <path clip-rule="evenodd" d="M182.392 113.898l-70.048-70.196-16.286 16.227 23.817 23.877-52.267 52.087 70.287 70.406 16.077-16.018-24.026-24.086zm-67.03 34.486c-.466.15-.968.15-1.434 0a3.949 3.949 0 01-1.733-1.225l-9.473-9.503a4.066 4.066 0 01-1.226-1.733 2.356 2.356 0 010-1.434 3.96 3.96 0 011.226-1.734l29.853-29.794a3.666 3.666 0 011.734-1.195c.466-.15.968-.15 1.434 0a3.949 3.949 0 011.733 1.225l9.473 9.503c.56.448.976 1.051 1.196 1.733a2.36 2.36 0 010 1.435 3.962 3.962 0 01-1.225 1.733l-29.854 29.794a3.724 3.724 0 01-1.704 1.195z" fill="#183a9e" fill-rule="evenodd" opacity=".15"/>
    <g fill="#204ecf">
      <path d="M137.892 209.059l-73.048-73.17 52.267-52.088-23.817-23.876 19.054-18.985 72.806 72.961-52.447 52.298 24.029 24.086zm-67.52-73.162l67.527 67.642 13.31-13.262-24.025-24.086 52.446-52.297-67.289-67.43-13.52 13.469 23.816 23.876-52.266 52.088z"/>
      <path d="M114.645 150.45a4.39 4.39 0 01-1.297-.2 5.82 5.82 0 01-2.533-1.707l-9.476-9.508a5.928 5.928 0 01-1.705-2.522 4.306 4.306 0 01-.004-2.605 5.903 5.903 0 011.713-2.535l29.854-29.795a5.49 5.49 0 012.634-1.707 4.199 4.199 0 012.493.029c.98.338 1.855.929 2.535 1.712l9.473 9.503a5.595 5.595 0 011.707 2.638 4.192 4.192 0 01-.028 2.489 5.835 5.835 0 01-1.711 2.535l-29.856 29.794a5.579 5.579 0 01-2.502 1.679 4.39 4.39 0 01-1.297.2zm20.509-46.823a2.126 2.126 0 00-1.195.713l-29.858 29.798c-.652.651-.702.811-.742.937.032.368.09.545.742 1.198l9.476 9.508c.654.652.806.7.93.738h.275c.145-.044.307-.095.877-.687l29.881-29.819c.652-.654.702-.811.742-.936a2.13 2.13 0 00-.713-1.202l-9.476-9.504c-.652-.653-.811-.702-.939-.744z"/>
      <path d="M125 250a125 125 0 11125-125 125.141 125.141 0 01-125 125zm0-246.093A121.094 121.094 0 10246.093 125 121.23 121.23 0 00125 3.907z"/>
    </g>
  </g>
</svg>